<svg width="1035" height="580" viewBox="0 0 1035 580" fill="none" xmlns="http://www.w3.org/2000/svg">
<path d="M0 5C0 2.23858 2.23858 0 5 0H315.049C317.81 0 320.049 2.23858 320.049 5V96.2047C320.049 98.9661 317.81 101.205 315.049 101.205H5C2.23857 101.205 0 98.9661 0 96.2047V5Z" fill="#646464"/>
<path d="M0 5C0 2.23858 2.23858 0 5 0H72.9446V101.205H5C2.23857 101.205 0 98.9661 0 96.2047V5Z" fill="#BFBFBF"/>
<path d="M0 138.898C0 136.137 2.23858 133.898 5 133.898H315.049C317.81 133.898 320.049 136.137 320.049 138.898V230.103C320.049 232.865 317.81 235.103 315.049 235.103H5C2.23857 235.103 0 232.865 0 230.103V138.898Z" fill="#646464"/>
<path d="M0 138.898C0 136.137 2.23858 133.898 5 133.898H72.9446V235.103H5C2.23857 235.103 0 232.865 0 230.103V138.898Z" fill="#BFBFBF"/>
<path d="M0 272.796C0 270.034 2.23858 267.796 5 267.796H315.049C317.81 267.796 320.049 270.034 320.049 272.796V364.001C320.049 366.762 317.81 369.001 315.049 369.001H5C2.23857 369.001 0 366.762 0 364.001V272.796Z" fill="#646464"/>
<path d="M0 272.796C0 270.034 2.23858 267.796 5 267.796H72.9446V369.001H5C2.23857 369.001 0 366.762 0 364.001V272.796Z" fill="#BFBFBF"/>
<path d="M357.475 5C357.475 2.23858 359.713 0 362.475 0H672.523C675.285 0 677.523 2.23858 677.523 5V96.2047C677.523 98.9661 675.285 101.205 672.523 101.205H362.475C359.713 101.205 357.475 98.9661 357.475 96.2047V5Z" fill="#646464"/>
<path d="M357.475 5C357.475 2.23858 359.713 0 362.475 0H430.419V101.205H362.475C359.713 101.205 357.475 98.9661 357.475 96.2047V5Z" fill="#BFBFBF"/>
<path d="M357.475 138.898C357.475 136.137 359.713 133.898 362.475 133.898H672.523C675.285 133.898 677.523 136.137 677.523 138.898V230.103C677.523 232.865 675.285 235.103 672.523 235.103H362.475C359.713 235.103 357.475 232.865 357.475 230.103V138.898Z" fill="#646464"/>
<path d="M357.475 138.898C357.475 136.137 359.713 133.898 362.475 133.898H430.419V235.103H362.475C359.713 235.103 357.475 232.865 357.475 230.103V138.898Z" fill="#BFBFBF"/>
<path d="M357.475 272.796C357.475 270.034 359.713 267.796 362.475 267.796H672.523C675.285 267.796 677.523 270.034 677.523 272.796V364.001C677.523 366.762 675.285 369.001 672.523 369.001H362.475C359.713 369.001 357.475 366.762 357.475 364.001V272.796Z" fill="#646464"/>
<path d="M357.475 272.796C357.475 270.034 359.713 267.796 362.475 267.796H430.419V369.001H362.475C359.713 369.001 357.475 366.762 357.475 364.001V272.796Z" fill="#BFBFBF"/>
<path d="M714.951 5C714.951 2.23858 717.19 0 719.951 0H1030C1032.76 0 1035 2.23858 1035 5V96.2047C1035 98.9661 1032.76 101.205 1030 101.205H719.951C717.19 101.205 714.951 98.9661 714.951 96.2047V5Z" fill="#646464"/>
<path d="M714.951 5C714.951 2.23858 717.19 0 719.951 0H787.896V101.205H719.951C717.19 101.205 714.951 98.9661 714.951 96.2047V5Z" fill="#BFBFBF"/>
<path d="M714.951 138.898C714.951 136.137 717.19 133.898 719.951 133.898H1030C1032.76 133.898 1035 136.137 1035 138.898V230.103C1035 232.865 1032.76 235.103 1030 235.103H719.951C717.19 235.103 714.951 232.865 714.951 230.103V138.898Z" fill="#646464"/>
<path d="M714.951 138.898C714.951 136.137 717.19 133.898 719.951 133.898H787.896V235.103H719.951C717.19 235.103 714.951 232.865 714.951 230.103V138.898Z" fill="#BFBFBF"/>
<path d="M714.951 272.796C714.951 270.034 717.19 267.796 719.951 267.796H1030C1032.76 267.796 1035 270.034 1035 272.796V364.001C1035 366.762 1032.76 369.001 1030 369.001H719.951C717.19 369.001 714.951 366.762 714.951 364.001V272.796Z" fill="#646464"/>
<path d="M714.951 272.796C714.951 270.034 717.19 267.796 719.951 267.796H787.896V369.001H719.951C717.19 369.001 714.951 366.762 714.951 364.001V272.796Z" fill="#BFBFBF"/>
<path d="M750.297 480.242C748.198 485.806 742.883 489.483 736.95 489.483H674.525L701.368 545.938C707.013 557.81 701.981 572.016 690.125 577.679C678.264 583.337 664.073 578.295 658.425 566.42L630.738 508.107L586.148 560.65C583.389 563.907 579.389 565.683 575.281 565.683C573.627 565.683 571.964 565.395 570.357 564.809C564.734 562.764 561 557.405 561 550.856V332.299C561 326.679 564.288 321.564 569.395 319.253C574.525 316.961 580.518 317.86 584.704 321.564L745.88 464.458C750.892 468.394 751.902 474.646 750.297 480.242Z" fill="black"/>
</svg>
